<svg version="1" xmlns="http://www.w3.org/2000/svg" width="682.667" height="682.667" viewBox="0 0 512.000000 512.000000"><path d="M108 .5c-.8.2-4.9.9-9 1.5-23.2 3.8-45.9 15.7-63.6 33.4C16.7 54.1 5.9 75.5 1.5 102.5-.7 116-.7 397 1.5 410.7c8.3 51.4 48.4 91.5 99.8 99.8 13.8 2.2 295.6 2.2 309.4 0 12.7-2.1 24-5.8 35.7-11.8 34.3-17.5 57.9-50 64.1-88 2.2-13.7 2.2-294.7 0-308.2-4.4-27-15.2-48.4-33.9-67.1-16.8-16.8-35.2-26.9-60.3-33.1C410.1.8 396.7.6 259.5.4 177 .3 108.8.3 108 .5zm135 112V136h-55v286h-53V136H81V89h162v23.5zm113.4 74.2c14.3 53.8 26.3 98.7 26.7 99.8.4 1.1.8-42.9.8-97.8L384 89h47v333h-53.9l-1.5-5.3c-.8-2.8-15-56.3-31.6-118.7-16.5-62.4-30.5-114.4-31-115.5-.5-1.2-.9 48.2-.9 118.7L312 422h-47V89h65.5l25.9 97.7z"/></svg>